<svg width="29" height="21" viewBox="0 0 29 21" fill="none" xmlns="http://www.w3.org/2000/svg">
    <path
        d="M16.4291 14.0238L15.2185 12.829L2.42113 0.0158386L0 2.43697L11.6026 14.0238L10.1562 15.4859L2.42113 7.75088L0 10.1563L10.1562 20.3125L14.008 16.4449L17.8755 20.3125L20.2966 17.8913L16.4291 14.0238Z"
        fill="black" />
    <path
        d="M17.8755 4.84225L25.6106 12.5773L28.016 10.1562L17.8755 0.0157166L14.008 3.88324L10.1562 0.0157166L7.73508 2.43685L12.7031 7.38916L14.008 8.70977L25.6106 20.3123L28.016 17.8912L16.4291 6.30437L17.8755 4.84225Z"
        fill="black" />
    <path
        d="M3.63157 16.6492L2.421 15.4386L1.24188 16.6178C1.22616 16.6335 1.21044 16.6492 1.19472 16.6649L0.0155945 17.844L1.16327 18.9917C1.21044 19.0389 1.24188 19.086 1.28905 19.1175L2.43672 20.2652L3.60012 19.1018C3.63157 19.0703 3.66301 19.0389 3.69445 19.0074L4.85785 17.844L3.64729 16.6335L3.63157 16.6492Z"
        fill="black" />
    <path
        d="M24.3215 3.60025C24.353 3.63169 24.3687 3.64742 24.4001 3.67886L25.5792 4.85798L26.7426 3.69458C26.7741 3.66314 26.8212 3.61597 26.8527 3.58453L28.0161 2.42113L26.837 1.24201C26.8212 1.22629 26.7898 1.19484 26.7741 1.17912L25.595 0L24.4001 1.19484C24.4001 1.19484 24.3844 1.21057 24.3687 1.22629L23.1738 2.42113L24.3529 3.60025H24.3215Z"
        fill="black" />
</svg>